<svg xmlns="http://www.w3.org/2000/svg" width="256" height="256" viewBox="0 0 100 100"><rect width="100" height="100" rx="20" fill="#7d6ee7"></rect><path fill="#fff" d="M39.62 49.85L39.62 49.85Q39.62 46.50 38.69 44.05Q37.76 41.60 36.11 40.02Q34.47 38.44 32.21 37.66Q29.94 36.89 27.28 36.89L27.28 36.89Q25.85 36.89 24.70 36.98Q23.56 37.07 22.50 37.20L22.50 37.20L22.50 62.68Q23.56 62.93 24.89 63.02Q26.22 63.11 27.53 63.11L27.53 63.11Q33.29 63.11 36.45 59.77Q39.62 56.42 39.62 49.85ZM47.86 49.78L47.86 49.78Q47.86 54.81 46.40 58.56Q44.95 62.31 42.28 64.76Q39.62 67.21 35.86 68.45Q32.11 69.69 27.53 69.69L27.53 69.69Q26.47 69.69 25.23 69.65Q23.99 69.62 22.66 69.47Q21.33 69.31 19.99 69.07Q18.66 68.82 17.48 68.38L17.48 68.38Q14.51 67.27 14.51 64.66L14.51 64.66L14.51 34.28Q14.51 33.17 15.13 32.55Q15.75 31.93 16.86 31.56L16.86 31.56Q19.16 30.75 21.85 30.53Q24.55 30.32 26.97 30.32L26.97 30.32Q31.62 30.32 35.49 31.52Q39.37 32.73 42.09 35.15Q44.82 37.57 46.34 41.23Q47.86 44.89 47.86 49.78ZM84.13 40.86L84.13 40.86Q84.13 43.65 82.67 45.69Q81.22 47.74 78.30 48.98L78.30 48.98Q81.90 50.16 83.70 52.51Q85.50 54.87 85.50 58.09L85.50 58.09Q85.50 63.98 81.22 66.83Q76.94 69.69 68.82 69.69L68.82 69.69Q67.64 69.69 66.31 69.62Q64.97 69.56 63.61 69.41Q62.24 69.25 60.88 68.97Q59.52 68.69 58.34 68.32L58.34 68.32Q55.36 67.33 55.36 64.66L55.36 64.66L55.36 34.35Q55.36 33.17 55.98 32.55Q56.60 31.93 57.72 31.56L57.72 31.56Q59.83 30.87 62.62 30.59Q65.41 30.32 68.44 30.32L68.44 30.32Q75.95 30.32 80.04 32.89Q84.13 35.46 84.13 40.86ZM77.31 57.78L77.31 57.78Q77.31 55.30 75.54 53.88Q73.78 52.45 70.43 52.45L70.43 52.45L63.17 52.45L63.17 62.80Q64.35 63.11 66.00 63.24Q67.64 63.36 69.25 63.36L69.25 63.36Q73.03 63.36 75.17 62.03Q77.31 60.70 77.31 57.78ZM63.17 36.95L63.17 46.56L69.44 46.56Q72.78 46.56 74.43 45.20Q76.07 43.83 76.07 41.41L76.07 41.41Q76.07 36.52 68.51 36.52L68.51 36.52Q66.96 36.52 65.56 36.64Q64.17 36.76 63.17 36.95L63.17 36.95Z"></path></svg>